<?xml version="1.0" encoding="UTF-8"?>
<svg width="32" height="32" viewBox="0 0 32 32" fill="none" xmlns="http://www.w3.org/2000/svg">
  <!-- Globe background -->
  <circle cx="16" cy="16" r="14" fill="#1976D2"/>
  
  <!-- Globe lines -->
  <path d="M16 2C8.27 2 2 8.27 2 16C2 23.73 8.27 30 16 30C23.73 30 30 23.73 30 16C30 8.27 23.73 2 16 2Z" stroke="white" stroke-width="2"/>
  <path d="M2 16H30" stroke="white" stroke-width="2"/>
  <path d="M16 2C19.31 2 22.5 3.11 25.09 5.09C27.68 7.07 29.5 9.79 30.31 12.89" stroke="white" stroke-width="2"/>
  <path d="M16 30C12.69 30 9.5 28.89 6.91 26.91C4.32 24.93 2.5 22.21 1.69 19.11" stroke="white" stroke-width="2"/>
  
  <!-- Link icon -->
  <path d="M12 20L20 12" stroke="white" stroke-width="2" stroke-linecap="round"/>
  <path d="M15 12H20V17" stroke="white" stroke-width="2" stroke-linecap="round"/>
</svg> 